<?xml version="1.0" standalone="no"?>
<!DOCTYPE svg PUBLIC "-//W3C//DTD SVG 20010904//EN"
 "http://www.w3.org/TR/2001/REC-SVG-20010904/DTD/svg10.dtd">
<svg version="1.0" xmlns="http://www.w3.org/2000/svg"
 width="128.000000pt" height="128.000000pt" viewBox="0 0 128.000000 128.000000"
 preserveAspectRatio="xMidYMid meet">

<g transform="translate(0.000000,128.000000) scale(0.100000,-0.100000)"
fill="#000000" stroke="none">
<path d="M151 1206 c-45 -25 -50 -50 -51 -223 0 -150 2 -165 20 -183 24 -24
49 -25 76 -6 17 13 20 31 24 158 l5 143 143 5 c127 4 145 7 158 24 19 27 18
52 -6 76 -18 18 -33 20 -182 20 -116 -1 -170 -5 -187 -14z m344 -46 c0 -12
-25 -16 -142 -20 -97 -3 -146 -9 -155 -18 -9 -9 -15 -58 -18 -155 -4 -117 -8
-142 -20 -142 -13 0 -15 25 -18 157 -2 147 -1 159 18 178 19 19 31 20 178 18
132 -3 157 -5 157 -18z"/>
<path d="M760 1200 c-24 -24 -25 -49 -6 -76 13 -17 31 -20 158 -24 l143 -5 5
-143 c4 -127 7 -145 24 -158 27 -19 52 -18 76 6 18 18 20 33 20 180 0 240 0
240 -240 240 -147 0 -162 -2 -180 -20z m360 -40 c19 -19 20 -31 18 -178 -3
-132 -5 -157 -18 -157 -12 0 -16 25 -20 143 -4 127 -7 145 -24 158 -15 10 -54
14 -152 14 -127 0 -154 6 -139 30 4 6 68 10 161 10 141 0 156 -2 174 -20z"/>
<path d="M320 1000 c-28 -28 -29 -131 -1 -159 11 -11 21 -37 23 -58 4 -52 32
-53 36 0 3 36 4 37 43 37 52 0 79 27 79 80 l0 40 140 0 140 0 0 -40 c0 -53 27
-80 79 -80 39 0 40 -1 43 -37 4 -53 32 -52 36 0 2 21 12 47 23 58 14 14 19 33
19 79 0 82 -18 100 -100 100 -47 0 -64 -4 -80 -20 -18 -18 -33 -20 -160 -20
-127 0 -142 2 -160 20 -16 16 -33 20 -80 20 -47 0 -64 -4 -80 -20z m135 -80
l0 -55 -55 0 -55 0 -3 44 c-5 67 0 72 60 69 l53 -3 0 -55z m480 0 l0 -55 -55
0 -55 0 -3 44 c-5 67 0 72 60 69 l53 -3 0 -55z"/>
<path d="M555 890 c-14 -23 13 -31 91 -28 62 2 79 6 79 18 0 12 -17 16 -82 18
-52 2 -84 -1 -88 -8z"/>
<path d="M523 802 c-4 -17 -14 -22 -52 -24 -33 -2 -46 -7 -46 -18 0 -11 14
-16 53 -18 62 -4 84 10 80 46 -4 32 -28 41 -35 14z"/>
<path d="M727 813 c-12 -11 -7 -50 7 -62 21 -18 121 -10 121 9 0 11 -13 16
-46 18 -37 2 -48 7 -52 23 -5 19 -18 25 -30 12z"/>
<path d="M605 790 c-11 -18 10 -32 41 -28 40 4 38 32 -3 36 -17 2 -34 -2 -38
-8z"/>
<path d="M145 689 c-4 -6 -3 -15 2 -20 5 -5 209 -8 499 -7 427 3 489 5 489 18
0 13 -62 15 -492 18 -348 1 -494 -1 -498 -9z"/>
<path d="M347 614 c-4 -4 -7 -22 -7 -41 0 -20 -8 -41 -20 -53 -16 -16 -20 -33
-20 -80 0 -82 18 -100 100 -100 47 0 64 4 80 20 18 18 33 20 160 20 127 0 142
-2 160 -20 16 -16 33 -20 80 -20 82 0 100 18 100 100 0 46 -5 65 -19 79 -11
11 -21 37 -23 58 -4 52 -32 53 -36 1 -3 -37 -4 -38 -43 -38 -52 0 -79 -27 -79
-80 l0 -40 -140 0 -140 0 0 40 c0 53 -27 80 -79 80 -39 0 -40 1 -43 37 -3 35
-17 51 -31 37z m108 -174 l0 -55 -55 0 -55 0 -3 44 c-5 67 0 72 60 69 l53 -3
0 -55z m480 0 l0 -55 -55 0 -55 0 -3 44 c-5 67 0 72 60 69 l53 -3 0 -55z"/>
<path d="M425 610 c-12 -19 6 -30 49 -30 36 0 45 -4 49 -21 7 -27 31 -20 35
10 6 37 -15 51 -74 51 -29 0 -56 -4 -59 -10z"/>
<path d="M731 606 c-15 -18 -11 -58 7 -64 7 -2 16 5 19 16 4 17 14 22 52 24
33 2 46 7 46 18 0 22 -107 27 -124 6z"/>
<path d="M605 590 c-11 -18 10 -32 41 -28 40 4 38 32 -3 36 -17 2 -34 -2 -38
-8z"/>
<path d="M120 560 c-18 -18 -20 -33 -20 -180 0 -240 0 -240 240 -240 147 0
162 2 180 20 24 24 25 49 6 76 -13 17 -31 20 -158 24 l-143 5 -5 143 c-4 127
-7 145 -24 158 -27 19 -52 18 -76 -6z m60 -168 c3 -96 9 -145 18 -154 9 -9 58
-15 155 -18 117 -4 142 -8 142 -20 0 -13 -25 -15 -157 -18 -209 -3 -198 -14
-198 191 0 85 3 157 7 161 21 21 28 -11 33 -142z"/>
<path d="M1084 566 c-17 -13 -20 -31 -24 -158 l-5 -143 -143 -5 c-127 -4 -145
-7 -158 -24 -19 -27 -18 -52 6 -76 18 -18 33 -20 180 -20 240 0 240 0 240 240
0 147 -2 162 -20 180 -24 24 -49 25 -76 6z m54 -189 c3 -209 14 -198 -196
-195 -132 3 -157 5 -157 18 0 12 25 16 143 20 127 4 145 7 158 24 10 15 14 54
14 151 0 73 3 135 7 139 22 21 28 -11 31 -157z"/>
<path d="M555 490 c-14 -23 13 -31 91 -28 62 2 79 6 79 18 0 12 -17 16 -82 18
-52 2 -84 -1 -88 -8z"/>
<path d="M144 89 c-10 -17 13 -36 27 -22 12 12 4 33 -11 33 -5 0 -12 -5 -16
-11z"/>
<path d="M225 89 c-15 -24 17 -29 161 -27 125 3 149 5 149 18 0 13 -25 15
-152 18 -103 2 -154 -1 -158 -9z"/>
<path d="M584 89 c-10 -17 13 -36 27 -22 12 12 4 33 -11 33 -5 0 -12 -5 -16
-11z"/>
<path d="M665 89 c-16 -25 18 -29 201 -27 160 3 189 5 189 18 0 13 -29 15
-192 18 -132 2 -194 -1 -198 -9z"/>
<path d="M1104 89 c-10 -17 13 -36 27 -22 12 12 4 33 -11 33 -5 0 -12 -5 -16
-11z"/>
</g>
</svg>
